<svg width="520" height="925" viewBox="0 0 520 925" fill="none" xmlns="http://www.w3.org/2000/svg">
  <path opacity=".99" fill-rule="evenodd" clip-rule="evenodd" d="m35.192 74.306 74.288-1.296-35.93 70.534-38.358-69.238Z" fill="#BFDBFE"/>
  <path opacity=".75" fill-rule="evenodd" clip-rule="evenodd" d="m141.15 199.817-11.642-41.648 38.884 9.768-27.242 31.88Z" fill="#BFDBFE"/>
  <path opacity=".93" fill-rule="evenodd" clip-rule="evenodd" d="m175.648 115.786 47.64-63.83 27.015 76.577-74.655-12.747Z" fill="#BFDBFE"/>
  <path opacity=".98" fill-rule="evenodd" clip-rule="evenodd" d="m352.02 173.078 4.049-49.556 37.361 28.466-41.41 21.09Z" fill="#BFDBFE"/>
  <path opacity=".85" fill-rule="evenodd" clip-rule="evenodd" d="m449.564 61.05-45.088-37.08L456.371 0l-6.807 61.05Z" fill="#BFDBFE"/>
  <path opacity=".82" fill-rule="evenodd" clip-rule="evenodd" d="m117.111 320.137-50.102-12.668 34.993-40.833 15.109 53.501Z" fill="#BFDBFE"/>
  <path opacity=".98" fill-rule="evenodd" clip-rule="evenodd" d="m109.538 226.974 13.548-75.269 53.066 50.195-66.614 25.074Z" fill="#BFDBFE"/>
  <path opacity=".84" fill-rule="evenodd" clip-rule="evenodd" d="m220.731 252.318-44.303-43.531 56.63-20.022-12.327 63.553Z" fill="#BFDBFE"/>
  <path opacity=".77" fill-rule="evenodd" clip-rule="evenodd" d="m361.998 374.863-48.887-24.898 44.106-33.605 4.781 58.503Z" fill="#BFDBFE"/>
  <path opacity=".89" fill-rule="evenodd" clip-rule="evenodd" d="m432.715 217.929 24.075-47.102 25.448 46.084-49.523 1.018Z" fill="#BFDBFE"/>
  <path opacity=".98" fill-rule="evenodd" clip-rule="evenodd" d="m35.013 491.642-8.031-72.025 61.225 28.279-53.194 43.746Z" fill="#BFDBFE"/>
  <path opacity=".78" fill-rule="evenodd" clip-rule="evenodd" d="m164.598 573.317-63.821-38.624 62.442-40.826 1.379 79.45Z" fill="#BFDBFE"/>
  <path opacity=".83" fill-rule="evenodd" clip-rule="evenodd" d="m263.357 311.609 62.142 3.641-33.81 56.652-28.332-60.293Z" fill="#BFDBFE"/>
  <path opacity=".81" fill-rule="evenodd" clip-rule="evenodd" d="m396.419 399.75-32.911 49.143-22.673-55.413 55.584 6.27Z" fill="#BFDBFE"/>
  <path opacity=".85" fill-rule="evenodd" clip-rule="evenodd" d="m450.218 339.059-11.786 44.484-29.482-33.22 41.268-11.264Z" fill="#BFDBFE"/>
  <path opacity=".84" fill-rule="evenodd" clip-rule="evenodd" d="m107.126 474.023 24.079 56.399-56.794-5.407 32.715-50.992Z" fill="#BFDBFE"/>
  <path opacity=".78" fill-rule="evenodd" clip-rule="evenodd" d="m101.233 651.337 35.822-14.124-6.6 40.729-29.222-26.605Z" fill="#BFDBFE"/>
  <path opacity=".76" fill-rule="evenodd" clip-rule="evenodd" d="m214.664 497.011 64.619-14.841-20.358 68.177-44.261-53.336Z" fill="#BFDBFE"/>
  <path opacity=".87" fill-rule="evenodd" clip-rule="evenodd" d="m322.815 631.609-6.474-50.645 43.463 19.107-36.989 31.538Z" fill="#BFDBFE"/>
  <path opacity=".98" fill-rule="evenodd" clip-rule="evenodd" d="m431.424 545.453 58.411 1.2-30.015 54.356-28.396-55.556Z" fill="#BFDBFE"/>
  <path opacity=".71" fill-rule="evenodd" clip-rule="evenodd" d="M52.582 764.815 0 735.559l49.407-34.913 3.175 64.169Z" fill="#BFDBFE"/>
  <path opacity=".97" fill-rule="evenodd" clip-rule="evenodd" d="m114.381 753.813 10.985-61.029 43.026 40.699-54.011 20.33Z" fill="#BFDBFE"/>
  <path opacity=".78" fill-rule="evenodd" clip-rule="evenodd" d="m189.359 814.73 35.495-69.445 37.52 67.945-73.015 1.5Z" fill="#BFDBFE"/>
  <path opacity=".82" fill-rule="evenodd" clip-rule="evenodd" d="M381.825 908.607 337.69 891.05l35.909-32.787 8.226 50.344Z" fill="#BFDBFE"/>
  <path opacity=".84" fill-rule="evenodd" clip-rule="evenodd" d="M461.732 789.263 520 823.091l-55.869 37.987-2.399-71.815Z" fill="#BFDBFE"/>
</svg>
